<?xml version="1.0" encoding="UTF-8"?>
<svg xmlns="http://www.w3.org/2000/svg" xmlns:xlink="http://www.w3.org/1999/xlink" viewBox="0 0 50 50" width="50px" height="50px">
<g id="surface85696048">
<path style=" stroke:none;fill-rule:nonzero;fill:rgb(0%,0%,0%);fill-opacity:0.47059;" d="M 25 5 C 13.953125 5 5 13.953125 5 25 C 5 36.046875 13.953125 45 25 45 C 36.046875 45 45 36.046875 45 25 C 45 13.953125 36.046875 5 25 5 Z M 40.140625 18.070312 C 40.144531 18.230469 40.171875 18.367188 40.171875 18.535156 C 40.171875 20.273438 39.84375 22.230469 38.863281 24.679688 L 33.886719 39.074219 C 32.828125 39.746094 31.695312 40.296875 30.496094 40.714844 L 25.304688 26.496094 L 20.316406 40.984375 C 19.25 40.671875 18.230469 40.253906 17.261719 39.746094 L 9.578125 18.703125 C 10.03125 17.601562 10.59375 16.558594 11.257812 15.589844 C 11.429688 15.589844 11.621094 15.597656 11.769531 15.597656 C 13.5625 15.597656 16.339844 15.378906 16.339844 15.378906 C 17.269531 15.328125 17.375 16.683594 16.453125 16.792969 C 16.453125 16.792969 15.523438 16.902344 14.488281 16.957031 L 20.734375 35.542969 L 24.488281 24.28125 L 21.816406 16.953125 C 20.890625 16.902344 20.019531 16.792969 20.019531 16.792969 C 19.089844 16.738281 19.203125 15.324219 20.125 15.378906 C 20.125 15.378906 22.960938 15.597656 24.644531 15.597656 C 26.4375 15.597656 29.214844 15.378906 29.214844 15.378906 C 30.140625 15.328125 30.25 16.683594 29.324219 16.792969 C 29.324219 16.792969 28.394531 16.902344 27.363281 16.957031 L 33.5625 35.398438 L 35.273438 29.675781 C 36.144531 27.449219 36.578125 25.601562 36.578125 24.132812 C 36.578125 22.011719 35.820312 20.542969 35.164062 19.402344 C 34.296875 17.988281 33.476562 16.792969 33.476562 15.375 C 33.476562 13.960938 34.445312 12.644531 35.863281 12.386719 C 37.671875 13.945312 39.132812 15.882812 40.140625 18.070312 Z M 40.140625 18.070312 "/>
</g>
</svg>
